<?xml version="1.0" encoding="utf-8"?><svg xmlns="http://www.w3.org/2000/svg" xmlns:xlink="http://www.w3.org/1999/xlink"><symbol viewBox="0 0 38 38" id="auto-tank" xmlns="http://www.w3.org/2000/svg"><path d="M37.174 25.608H33.56a9.912 9.912 0 0 0 4.44-8.26c0-5.466-4.447-9.913-9.913-9.913V4.956a.826.826 0 0 0-.826-.826h-4.957a.826.826 0 0 0-.826.826v2.479H9.913C4.447 7.435 0 11.882 0 17.348a9.911 9.911 0 0 0 4.44 8.26H.826a.826.826 0 0 0-.826.827v3.304c0 .456.37.826.826.826h.826a3.308 3.308 0 0 0 3.304 3.304 3.308 3.308 0 0 0 3.305-3.304h2.478a.826.826 0 1 0 0-1.652H7.82l-.025-.04a3.493 3.493 0 0 0-.159-.24l-.035-.048a3.412 3.412 0 0 0-.19-.231l-.052-.055a3.393 3.393 0 0 0-.196-.192l-.065-.056a3.319 3.319 0 0 0-.09-.074c-.018-.014-.036-.03-.055-.043a3.397 3.397 0 0 0-.154-.111l-.004-.002a3.291 3.291 0 0 0-.166-.104L6.6 27.7a3.416 3.416 0 0 0-.164-.088l-.011-.006a3.303 3.303 0 0 0-.388-.163l-.012-.004a3.255 3.255 0 0 0-.193-.06l-.01-.002a3.275 3.275 0 0 0-.406-.084l-.044-.005a3.471 3.471 0 0 0-.159-.016l-.053-.004a3.326 3.326 0 0 0-.405 0 3.47 3.47 0 0 0-.212.02l-.044.005c-.139.02-.274.048-.407.084l-.009.002c-.065.018-.13.038-.194.06l-.011.004c-.134.046-.263.1-.388.163l-.011.005c-.056.029-.11.058-.164.089l-.03.017a3.293 3.293 0 0 0-.165.104l-.004.002a3.397 3.397 0 0 0-.154.11l-.055.044-.09.073-.065.057a3.378 3.378 0 0 0-.196.192l-.052.055a2.95 2.95 0 0 0-.19.23l-.035.05c-.04.054-.077.109-.112.165l-.047.075-.024.039h-.443V27.26H36.348v1.652h-.443l-.024-.04a3.411 3.411 0 0 0-.159-.24l-.035-.048a3.33 3.33 0 0 0-.19-.231l-.052-.055a3.418 3.418 0 0 0-.196-.192 3.306 3.306 0 0 0-.155-.13c-.018-.014-.036-.03-.055-.043a3.424 3.424 0 0 0-.154-.111l-.004-.002a3.346 3.346 0 0 0-.166-.104l-.029-.017a3.408 3.408 0 0 0-.164-.088l-.011-.006a3.298 3.298 0 0 0-.593-.227l-.01-.002a3.271 3.271 0 0 0-.406-.084l-.044-.005a3.462 3.462 0 0 0-.159-.016l-.053-.004a3.32 3.32 0 0 0-.405 0c-.018 0-.035.002-.053.004-.053.004-.107.01-.16.016l-.043.005c-.138.02-.274.048-.407.084l-.009.002c-.065.018-.13.038-.193.06l-.012.004a3.3 3.3 0 0 0-.388.163l-.011.005c-.056.029-.11.058-.164.089l-.03.017a3.303 3.303 0 0 0-.323.217l-.055.043a3.302 3.302 0 0 0-.35.322l-.053.055a2.905 2.905 0 0 0-.19.23l-.035.05a3.25 3.25 0 0 0-.112.165l-.047.075-.024.039H15.696a.826.826 0 0 0 0 1.652h14.043a3.308 3.308 0 0 0 3.304 3.304 3.308 3.308 0 0 0 3.305-3.304h.826c.456 0 .826-.37.826-.826v-3.304a.826.826 0 0 0-.826-.826zM3.424 29.95l.015-.038c.04-.093.089-.181.145-.265l.012-.017a1.679 1.679 0 0 1 .182-.22l.016-.017c.07-.07.146-.132.227-.188a1.643 1.643 0 0 1 .255-.143l.05-.024a1.71 1.71 0 0 1 .129-.047l.051-.014a1.585 1.585 0 0 1 .248-.05l.05-.007a1.77 1.77 0 0 1 .304 0l.051.007a1.66 1.66 0 0 1 .248.05l.051.014c.044.014.087.03.129.048l.05.023a1.658 1.658 0 0 1 .215.117l.04.026c.081.056.157.119.227.188l.016.016a1.694 1.694 0 0 1 .182.222l.012.017c.056.083.104.172.144.264l.016.038a1.654 1.654 0 0 1-1.532 2.267 1.654 1.654 0 0 1-1.533-2.267zm6.489-4.341c-4.555 0-8.26-3.706-8.26-8.261s3.705-8.261 8.26-8.261v16.522zm3.304 0h-1.652V23.13h1.652v2.479zm0-4.13h-1.652v-1.653h1.652v1.652zm0-3.305h-1.652v-1.652h1.652v1.652zm0-3.304h-1.652v-1.653h1.652v1.652zm0-3.305h-1.652V9.087h1.652v2.478zm9.913-5.783h3.305v1.653H23.13V5.782zm4.957 19.826H14.87V9.087h13.217v4.543a.826.826 0 1 0 1.652 0V9.253c3.766.767 6.609 4.105 6.609 8.095 0 4.555-3.706 8.26-8.261 8.26zm4.956 6.61a1.654 1.654 0 0 1-1.532-2.268l.015-.038c.04-.093.089-.181.145-.265l.012-.017a1.651 1.651 0 0 1 .182-.22l.016-.017c.07-.07.146-.132.227-.188a1.62 1.62 0 0 1 .255-.143l.05-.024c.042-.017.085-.033.129-.047l.05-.014a1.593 1.593 0 0 1 .249-.05l.05-.007a1.771 1.771 0 0 1 .304 0l.05.007a1.664 1.664 0 0 1 .249.05l.05.014c.045.014.088.03.13.048l.05.023c.028.012.056.025.082.04.018.008.034.018.051.027.028.016.055.032.082.05l.04.026c.081.056.157.119.227.188l.016.016c.03.03.059.062.086.095l.019.023c.027.033.053.068.077.104l.012.017c.056.083.104.172.145.264l.015.038a1.654 1.654 0 0 1-1.532 2.267z"/><path d="M13.801 29.155a.832.832 0 0 0-.584-.242.833.833 0 0 0-.584.242.832.832 0 0 0-.242.584c0 .217.088.43.242.584a.833.833 0 0 0 .584.242c.217 0 .43-.088.584-.242a.833.833 0 0 0 .242-.584.833.833 0 0 0-.242-.584zM29.497 15.525a.832.832 0 0 0-.584-.242.833.833 0 0 0-.584.242.833.833 0 0 0-.242.584c0 .217.088.43.242.584a.833.833 0 0 0 .584.242c.217 0 .43-.089.584-.242a.832.832 0 0 0 .242-.584.832.832 0 0 0-.242-.584z"/></symbol><symbol viewBox="0 0 33 33" id="chem-flask" xmlns="http://www.w3.org/2000/svg"><g clip-path="url(#bclip0)"><path d="M28.056 29.458l-7.488-11.995V7.397h.674a.575.575 0 0 0 .575-.574V3.05a.575.575 0 0 0-.575-.574h-9.01a.575.575 0 0 0-.575.574v3.773c0 .317.258.574.575.574h.674v2.398a.575.575 0 1 0 1.15 0V7.397h3.868a.575.575 0 1 0 0-1.15h-5.117V3.626h7.86v2.623h-.674a.575.575 0 0 0-.575.575v10.805c0 .107.03.213.087.304l7.027 11.256h-1.979a.575.575 0 0 0 0 1.15h2.653c.096.3.065.625-.094.912-.209.376-.59.6-1.02.6H7.382c-.43 0-.811-.224-1.02-.6a1.15 1.15 0 0 1-.094-.913h16.024a.575.575 0 1 0 0-1.15H6.942L13.8 18.203h4.239a.575.575 0 0 0 0-1.15h-3.983v-5.34a.575.575 0 0 0-1.15 0v5.75L5.418 29.459a2.287 2.287 0 0 0-.061 2.35A2.287 2.287 0 0 0 7.382 33h18.71c.854 0 1.611-.446 2.025-1.193a2.287 2.287 0 0 0-.06-2.349z"/><path d="M15.74 19.95h-1.725a.575.575 0 1 0 0 1.15h1.724a.575.575 0 0 0 0-1.15zM14.475 22.134H12.75a.575.575 0 1 0 0 1.15h1.725a.575.575 0 0 0 0-1.15zM13.21 24.319h-1.725a.575.575 0 0 0 0 1.15h1.725a.575.575 0 1 0 0-1.15zM25.702 15.3a2.446 2.446 0 0 0-2.443 2.444 2.446 2.446 0 0 0 2.443 2.443 2.446 2.446 0 0 0 2.443-2.443 2.446 2.446 0 0 0-2.443-2.444zm0 3.737c-.713 0-1.294-.58-1.294-1.293s.58-1.294 1.294-1.294a1.295 1.295 0 0 1 0 2.587zM9.345 7.592c-1.196 0-2.17.973-2.17 2.169 0 1.196.974 2.17 2.17 2.17s2.17-.974 2.17-2.17-.974-2.17-2.17-2.17zm0 3.189a1.02 1.02 0 0 1 0-2.04 1.02 1.02 0 0 1 0 2.04zM6.305 18.255c-.947 0-1.717.77-1.717 1.717 0 .947.77 1.717 1.717 1.717.947 0 1.717-.77 1.717-1.717 0-.947-.77-1.717-1.717-1.717zm0 2.284a.568.568 0 1 1 .001-1.136.568.568 0 0 1-.001 1.136zM10.708 15.866a.575.575 0 1 0 0-1.15.575.575 0 0 0 0 1.15zM19.177 1.15a.575.575 0 1 0 0-1.15.575.575 0 0 0 0 1.15zM23.18 11.041a.575.575 0 1 0 0-1.15.575.575 0 0 0 0 1.15z"/></g><defs><clipPath id="bclip0"><path d="M0 0h33v33H0z"/></clipPath></defs></symbol><symbol viewBox="0 0 13 7" id="chevron" xmlns="http://www.w3.org/2000/svg"><path d="M6.964 6.776l5.844-5.262a.552.552 0 0 0 0-.836.707.707 0 0 0-.927 0L6.5 5.522 1.12.678a.708.708 0 0 0-.928 0 .552.552 0 0 0 0 .837l5.844 5.261a.716.716 0 0 0 .928 0z"/></symbol><symbol viewBox="0 0 23 33" id="gas-tank" xmlns="http://www.w3.org/2000/svg"><path d="M16.21 6.25V.528A.527.527 0 0 0 15.684 0H7.316a.527.527 0 0 0-.527.527V6.25C3.34 6.52.616 9.413.616 12.93v13.133a4.84 4.84 0 0 0 4.307 4.804v1.606c0 .291.236.527.527.527h12.1c.29 0 .527-.236.527-.527v-1.606a4.84 4.84 0 0 0 4.306-4.804V12.93c0-3.517-2.724-6.41-6.173-6.68zm-1.053-5.197V6.23h-3.13V5.032a1.49 1.49 0 0 0 .961-1.39A1.49 1.49 0 0 0 11.5 2.153a1.49 1.49 0 0 0-1.489 1.489c0 .635.401 1.177.962 1.39V6.23h-3.13V1.053h7.314zM11.5 4.077a.436.436 0 1 1 0-.871.436.436 0 0 1 0 .87zM7.316 7.283h8.368a5.653 5.653 0 0 1 5.62 5.12H5.357a.527.527 0 0 0 0 1.053H21.33v12.08H1.67v-12.08h1.58a.527.527 0 0 0 0-1.053H1.694a5.653 5.653 0 0 1 5.62-5.12zm-1.34 24.664v-1.05h11.047v1.05H5.976zm11.574-2.104H5.45a3.785 3.785 0 0 1-3.743-3.253h19.586a3.785 3.785 0 0 1-3.743 3.253z"/><path d="M11.5 24.484c1.13 0 2.119-.394 2.857-1.138.764-.77 1.197-1.865 1.189-3.005-.017-2.114-1.515-4.002-1.579-4.082a.528.528 0 0 0-.84.026l-.106.15c-.258-.562-.64-1.247-1.143-1.766a.527.527 0 0 0-.756 0c-.503.519-.885 1.204-1.143 1.766l-.106-.15a.527.527 0 0 0-.84-.026c-.064.08-1.562 1.968-1.579 4.082-.009 1.14.425 2.235 1.189 3.005.738.744 1.726 1.138 2.857 1.138zM9.45 17.51l.126.178c.153.216.274.387.568.368a.526.526 0 0 0 .46-.341c0-.004.005-.016.011-.035.095-.282.397-1.119.885-1.815.487.696.79 1.533.884 1.815l.012.035a.527.527 0 0 0 .603.331c.202-.043.272-.142.425-.358l.125-.178c.394.643.935 1.726.943 2.838.007.861-.315 1.683-.882 2.256-.537.54-1.266.826-2.11.826-.844 0-1.574-.286-2.11-.826-.568-.573-.89-1.395-.883-2.256.009-1.112.55-2.195.943-2.838z"/></symbol><symbol viewBox="0 0 33 33" id="lemonade" xmlns="http://www.w3.org/2000/svg"><path d="M21.044 33H8.531a.5.5 0 0 1-.497-.443L5.445 9.902a.501.501 0 0 1 .497-.557h17.691a.5.5 0 0 1 .497.557l-2.589 22.654a.5.5 0 0 1-.497.444zM8.977 32h11.621l2.475-21.654H6.503L8.976 32z"/><path d="M23.07 15.275H6.581a.5.5 0 0 1 0-1h16.49a.5.5 0 0 1 0 1zM14.121 22.354h-3.09a.5.5 0 0 1-.5-.5v-3.09a.5.5 0 0 1 .5-.5h3.09a.5.5 0 0 1 .5.5v3.09a.5.5 0 0 1-.5.5zm-2.59-1h2.09v-2.09h-2.09v2.09zM17.726 28.635a.493.493 0 0 1-.26-.073l-2.639-1.606a.5.5 0 0 1-.167-.687l1.606-2.639a.499.499 0 0 1 .687-.167l2.64 1.606a.5.5 0 0 1 .166.687l-1.606 2.64a.499.499 0 0 1-.427.24zm-1.95-2.274l1.783 1.086 1.086-1.784-1.784-1.086-1.086 1.784z"/><path d="M23.66 15.9c-.197 0-.393-.01-.586-.027a.501.501 0 0 1-.45-.545c.025-.274.26-.464.544-.45a5.223 5.223 0 0 0 5.71-5.195 5.224 5.224 0 0 0-5.218-5.219 5.223 5.223 0 0 0-5.217 5.218.5.5 0 0 1-1 0 6.224 6.224 0 0 1 6.217-6.218 6.225 6.225 0 0 1 6.218 6.218A6.226 6.226 0 0 1 23.66 15.9zM11.03 10.183a.5.5 0 0 1-.492-.415L9.027 1H3.623a.5.5 0 0 1 0-1h5.825a.5.5 0 0 1 .493.415l1.583 9.183a.5.5 0 0 1-.494.585z"/><path d="M23.633 10.346a.5.5 0 0 1-.5-.5v-5.88a.5.5 0 0 1 1 0v5.88a.5.5 0 0 1-.5.5z"/><path d="M27.687 14.21a.502.502 0 0 1-.354-.146L19.28 6.009a.5.5 0 0 1 .707-.707l8.054 8.055a.5.5 0 0 1-.354.853z"/><path d="M23.633 10.346a.5.5 0 0 1-.354-.853l4.078-4.078a.5.5 0 0 1 .707.707L23.986 10.2a.498.498 0 0 1-.353.146z"/><path d="M29.377 10.183h-5.744a.5.5 0 0 1 0-1h5.744a.5.5 0 0 1 0 1z"/></symbol></svg>